<?xml version="1.0" encoding="UTF-8" standalone="no"?>
<!-- Created with Inkscape (http://www.inkscape.org/) -->

<svg
   xmlns:dc="http://purl.org/dc/elements/1.1/"
   xmlns:cc="http://creativecommons.org/ns#"
   xmlns:rdf="http://www.w3.org/1999/02/22-rdf-syntax-ns#"
   xmlns:svg="http://www.w3.org/2000/svg"
   xmlns="http://www.w3.org/2000/svg"
   xmlns:sodipodi="http://sodipodi.sourceforge.net/DTD/sodipodi-0.dtd"
   xmlns:inkscape="http://www.inkscape.org/namespaces/inkscape"
   width="40"
   height="40"
   viewBox="0 0 10.583333 10.583334"
   version="1.1"
   id="svg8"
   sodipodi:docname="gear.svg"
   inkscape:version="0.92.3 (2405546, 2018-03-11)">
  <defs
     id="defs2" />
  <sodipodi:namedview
     id="base"
     pagecolor="#ffffff"
     bordercolor="#666666"
     borderopacity="1.0"
     inkscape:pageopacity="0.0"
     inkscape:pageshadow="2"
     inkscape:zoom="19.825"
     inkscape:cx="20"
     inkscape:cy="19.59155"
     inkscape:document-units="mm"
     inkscape:current-layer="layer1"
     showgrid="false"
     units="px"
     inkscape:pagecheckerboard="true"
     inkscape:window-width="1920"
     inkscape:window-height="1001"
     inkscape:window-x="-9"
     inkscape:window-y="-9"
     inkscape:window-maximized="1" />
  <metadata
     id="metadata5">
    <rdf:RDF>
      <cc:Work
         rdf:about="">
        <dc:format>image/svg+xml</dc:format>
        <dc:type
           rdf:resource="http://purl.org/dc/dcmitype/StillImage" />
        <dc:title></dc:title>
      </cc:Work>
    </rdf:RDF>
  </metadata>
  <g
     inkscape:label="圖層 1"
     inkscape:groupmode="layer"
     id="layer1"
     transform="translate(0,-286.41665)">
    <path
       style="opacity:1;fill:#000000;fill-opacity:1;fill-rule:nonzero;stroke:#181818;stroke-width:0.99999994;stroke-linecap:butt;stroke-linejoin:round;stroke-miterlimit:4;stroke-dasharray:none;stroke-dashoffset:0;stroke-opacity:1;paint-order:fill markers stroke"
       d="M 20.339844,1.3261719 C 16.561346,1.2825939 18.663811,6.0669366 15.15625,7.4726562 11.648689,8.8783381 9.8647395,3.966477 7.1621094,6.6074219 4.4594792,9.2484046 9.3280447,11.144961 7.8417969,14.619141 6.3555491,18.093358 1.621723,15.881649 1.578125,19.660156 c -0.043598,3.77847 4.7407949,1.676041 6.1464844,5.183594 1.4056894,3.507553 -3.5062076,5.291514 -0.8652344,7.994141 2.6409732,2.702664 4.537526,-2.165911 8.011719,-0.679688 3.474193,1.486262 1.262517,6.220207 5.041015,6.263672 3.778498,0.04362 1.676033,-4.740802 5.183594,-6.146484 3.507562,-1.405682 5.291511,3.506217 7.994141,0.865234 2.70263,-2.640983 -2.165936,-4.537501 -0.679688,-8.011719 1.486248,-3.474179 6.220056,-1.262508 6.263672,-5.041015 0.0436,-3.778507 -4.740795,-1.676004 -6.146484,-5.183594 -1.40569,-3.507553 3.506207,-5.291514 0.865234,-7.9941408 C 30.751605,4.2075295 28.855052,9.0761052 25.380859,7.5898438 21.906667,6.1036201 24.118342,1.3696364 20.339844,1.3261719 Z M 20,11.496094 A 8.5041332,8.5041638 0 0 1 28.503906,20 8.5041332,8.5041638 0 0 1 20,28.503906 8.5041332,8.5041638 0 0 1 11.496094,20 8.5041332,8.5041638 0 0 1 20,11.496094 Z"
       transform="matrix(0.26458333,0,0,0.26458333,0,286.41665)"
       id="path828"
       inkscape:connector-curvature="0" />
  </g>
</svg>
