<?xml version="1.0" encoding="UTF-8" standalone="no"?>
<svg
   xmlns:dc="http://purl.org/dc/elements/1.1/"
   xmlns:cc="http://creativecommons.org/ns#"
   xmlns:rdf="http://www.w3.org/1999/02/22-rdf-syntax-ns#"
   xmlns:svg="http://www.w3.org/2000/svg"
   xmlns="http://www.w3.org/2000/svg"
   xmlns:sodipodi="http://sodipodi.sourceforge.net/DTD/sodipodi-0.dtd"
   xmlns:inkscape="http://www.inkscape.org/namespaces/inkscape"
   width="24"
   height="24"
   viewBox="0 0 24 24"
   version="1.1"
   id="svg6"
   sodipodi:docname="uttering.svg"
   inkscape:version="0.92.3 (2405546, 2018-03-11)">
  <metadata
     id="metadata12">
    <rdf:RDF>
      <cc:Work
         rdf:about="">
        <dc:format>image/svg+xml</dc:format>
        <dc:type
           rdf:resource="http://purl.org/dc/dcmitype/StillImage" />
        <dc:title></dc:title>
      </cc:Work>
    </rdf:RDF>
  </metadata>
  <defs
     id="defs10" />
  <sodipodi:namedview
     pagecolor="#ffffff"
     bordercolor="#666666"
     borderopacity="1"
     objecttolerance="10"
     gridtolerance="10"
     guidetolerance="10"
     inkscape:pageopacity="0"
     inkscape:pageshadow="2"
     inkscape:window-width="1920"
     inkscape:window-height="1001"
     id="namedview8"
     showgrid="false"
     inkscape:zoom="9.8333333"
     inkscape:cx="-1.4237288"
     inkscape:cy="12"
     inkscape:window-x="-9"
     inkscape:window-y="-9"
     inkscape:window-maximized="1"
     inkscape:current-layer="svg6"
     inkscape:pagecheckerboard="true" />
  <path
     d="m 11.542373,8.8233964 v 6.5565966 h 2.418079 l 3.022599,5.463831 V 3.3595655 l -3.022599,5.4638309 z m 8.161017,3.2782986 c 0,-1.934196 -0.61661,-3.5952008 -1.511299,-4.4038478 v 8.7967678 c 0.894689,-0.797719 1.511299,-2.458724 1.511299,-4.39292 z M 18.192091,2.5181356 v 2.2510983 c 1.747061,0.9397789 3.022599,3.8683922 3.022599,7.3324611 0,3.464069 -1.275538,6.392682 -3.022599,7.33246 v 2.251099 c 2.424125,-0.994417 4.231638,-4.90652 4.231638,-9.583559 0,-4.6770393 -1.807513,-8.5891422 -4.231638,-9.5835594 z"
     id="path2"
     inkscape:connector-curvature="0"
     style="stroke-width:0.81277233" />
  <path
     d="M0 0h24v24H0z"
     fill="none"
     id="path4" />
  <g
     aria-label="A"
     style="font-style:normal;font-weight:normal;font-size:42.66666794px;line-height:1.25;font-family:sans-serif;letter-spacing:0px;word-spacing:0px;fill:#000000;fill-opacity:1;stroke:none"
     id="text4528"
     transform="matrix(1.0695267,0,0,1.9231631,-0.10368555,-2.5982104)">
    <path
       d="M 10.267346,12.508475 H 8.8936483 L 7.9431275,9.8066525 H 3.7504192 L 2.7998984,12.508475 H 1.4913047 L 5.0199505,2.8144651 H 6.7387004 Z M 7.5459921,8.6998816 5.8467734,3.9407672 4.1410442,8.6998816 Z"
       style="font-size:13.33333302px"
       id="path4530"
       inkscape:connector-curvature="0" />
  </g>
</svg>
